<svg xmlns="http://www.w3.org/2000/svg" width="25" height="23" viewBox="0 0 25 23">
  <g fill="none" fill-rule="evenodd" transform="translate(-238 -5336)">
    <g transform="translate(221 5267)">
      <g fill-rule="nonzero" transform="translate(17 69)">
        <path fill="#FF2C55" d="M4.98,12.9836 L0.917,17.1866 C0.361,17.7606 0.361,18.6896 0.917,19.2636 L4.048,22.5036 L9.956,22.5036 L12.189,20.1926 L4.98,12.9836 Z"/>
        <polygon fill="#FC0" points="16.5 .503 24.5 8.503 12.5 20.503 4.5 12.503"/>
        <path fill="#000" d="M12.5,19.7961 L5.207,12.5031 L16.5,1.2101 L23.793,8.5031 L12.5,19.7961 Z M9.744,22.0031 L4.26,22.0031 L1.276,18.9161 C0.908,18.5351 0.908,17.9151 1.276,17.5341 L4.986,13.6961 L11.488,20.1981 L9.744,22.0031 Z M16.854,0.1501 C16.658,-0.0459 16.342,-0.0459 16.146,0.1501 L4.146,12.1501 C3.951,12.3451 3.951,12.6611 4.146,12.8571 L4.279,12.9891 L0.557,16.8391 C-0.182,17.6041 -0.182,18.8471 0.557,19.6111 L2.869,22.0031 L0.5,22.0031 C0.224,22.0031 0,22.2271 0,22.5031 C0,22.7791 0.224,23.0031 0.5,23.0031 L4.048,23.0031 L9.956,23.0031 L16.5,23.0031 C16.776,23.0031 17,22.7791 17,22.5031 C17,22.2271 16.776,22.0031 16.5,22.0031 L11.134,22.0031 L12.205,20.8961 C12.293,20.9621 12.395,21.0031 12.5,21.0031 C12.628,21.0031 12.756,20.9541 12.854,20.8571 L24.854,8.8571 C25.049,8.6611 25.049,8.3451 24.854,8.1501 L16.854,0.1501 Z"/>
        <path fill="#000" d="M23.8535,7.1496 C23.6585,6.9546 23.3415,6.9546 23.1465,7.1496 L11.4955,18.8006 C11.4115,18.7416 11.3105,18.7096 11.2065,18.7096 C11.1015,18.7096 10.9405,18.7636 10.8465,18.8616 L9.7435,20.0036 L4.2595,20.0036 L1.3085,16.9516 C1.2925,16.9276 1.2755,16.9046 1.2595,16.8876 C1.1655,16.7846 1.0315,16.7256 0.8915,16.7256 L0.8905,16.7256 C0.7495,16.7256 0.6155,16.7856 0.5215,16.8896 C-0.1835,17.6676 -0.1675,18.8626 0.5565,19.6116 L3.6885,22.8506 C3.7825,22.9486 3.9125,23.0036 4.0475,23.0036 L9.9555,23.0036 C10.0905,23.0036 10.2205,22.9486 10.3145,22.8506 L12.1995,20.9026 C12.3915,21.0496 12.6745,21.0356 12.8535,20.8566 L24.8535,8.8566 C25.0485,8.6616 25.0485,8.3446 24.8535,8.1496 L23.8535,7.1496 Z" opacity=".12"/>
      </g>
    </g>
  </g>
</svg>
