<svg xmlns="http://www.w3.org/2000/svg" width="27" height="27" viewBox="0 0 27 27">
  <g fill="none" fill-rule="evenodd" transform="translate(-237 -5285)">
    <rect width="1440" height="6017" fill="#FBFBFA"/>
    <rect width="1440" height="1051" x="1" y="4603" fill="#FBFBFA"/>
    <g transform="translate(221 5267)">
      <rect width="59" height="161" x=".5" y=".5" fill="#E5E6E8" stroke="#596270" stroke-opacity=".367"/>
      <rect width="38" height="38" x="11" y="12" fill="#FFF" stroke="#34486A" stroke-width="2"/>
      <g fill-rule="nonzero" transform="translate(17 19)">
        <polygon fill="#2D346A" points="4.551 23.301 0 25 1.693 20.449 1.705 20.455 4.545 23.295"/>
        <polygon fill="#FFF" points="7.028 17.972 10.239 21.182 4.551 23.301 4.545 23.295 1.705 20.455 1.693 20.449 3.818 14.756"/>
        <path fill="#FFC12E" d="M22.2215909,9.19886364 L10.2272727,21.1818182 L7.01704545,17.9715909 L21.0227273,3.97727273 L24.2045455,7.15909091 C24.1039204,7.29711925 23.9917765,7.4263698 23.8693182,7.54545455 L22.2272727,9.20454545 L22.2215909,9.19886364 Z"/>
        <path fill="#FFC12E" d="M15.8011364,2.77840909 L17.4659091,1.13636364 C17.5869494,1.01381464 17.7180946,0.901676021 17.8579545,0.801136364 L21.0227273,3.97727273 L7.02840909,17.9715909 L3.81818182,14.7727273 L15.8011364,2.77840909 Z"/>
        <path fill="#C3CCE9" d="M25,4.77840909 C25.0082464,5.62965457 24.7367672,6.46006141 24.2272727,7.14204545 L21.0227273,3.97727273 L17.8579545,0.772727273 C19.4772727,-0.454545455 21.9318182,-0.204545455 23.5397727,1.43181818 C24.4513733,2.30934275 24.9766957,3.51329178 25,4.77840909 Z"/>
        <path fill="#2D346A" d="M15.5870588,2.19463808 C15.8090513,1.97285294 16.168804,1.97302097 16.3905892,2.19501339 C16.5953139,2.39992947 16.6109188,2.72222716 16.4375051,2.94503892 L16.3902139,2.99854373 L4.62159091,14.7556818 L10.2386364,20.3778409 L22.0015501,8.60969224 C22.2063227,8.40482399 22.5286094,8.38899332 22.7515426,8.56225087 L22.8050805,8.60950463 C23.0099487,8.81427723 23.0257794,9.13656392 22.8525219,9.35949711 L22.8052681,9.41303504 L10.6404954,21.5834896 C10.4356249,21.7884557 10.1131522,21.8041903 9.89022561,21.6307161 L9.83669349,21.5834057 L3.41623895,15.1572693 C3.21150553,14.9523547 3.19589619,14.6300506 3.3693123,14.4072348 L3.4166043,14.353729 L15.5870588,2.19463808 Z"/>
        <path fill="#2D346A" d="M17.0641439.73459842C18.8918826-1.09314034 21.9833557-.928129236 23.969947 1.05846206 25.9168829 3.00539796 26.1144277 6.01390023 24.3991466 7.84973182L24.291738 7.96064545 22.6269652 9.60837273C22.4039376 9.82911681 22.0441895 9.82726562 21.8234455 9.60423798 21.6196817 9.39836631 21.6055849 9.07599913 21.7800391 8.85400115L21.8275802 8.80071818 23.490997 7.15433745C24.8538408 5.79634365 24.7270597 3.42263563 23.1664166 1.86199249 21.6418945.337470397 19.3413484.181114374 17.9618499 1.44796973L17.8649036 1.54088057 16.2001309 3.18292603C15.9767223 3.40328462 15.616978 3.40081215 15.3966194 3.17740361 15.1932115 2.97118035 15.1796715 2.64878931 15.3545088 2.42709294L15.4021418 2.37389216 17.0641439.73459842zM3.28577722 14.5572482C3.3953691 14.2632092 3.72257654 14.1136853 4.01661548 14.2232772 4.28965164 14.3250411 4.43808043 14.6144429 4.3701461 14.8906908L4.35058642 14.9541155.966477273 24.0329545 10.040106 20.6494496C10.3131237 20.5476361 10.6147813 20.6692387 10.7442705 20.9225381L10.7710049 20.9832878C10.8728184 21.2563055 10.7512158 21.5579631 10.4979165 21.6874523L10.4371667 21.7141867.198530339 25.5323686C-.237743007 25.6950632-.663708734 25.2952134-.551142202 24.8609481L-.532404602 24.8015663 3.28577722 14.5572482z"/>
        <path fill="#2D346A" d="M1.30278024,20.0527802 C1.50760067,19.8479598 1.82989104,19.8322044 2.05278377,20.005514 L2.10631067,20.0527802 L4.94721976,22.8936893 C5.16910856,23.1155781 5.16910856,23.475331 4.94721976,23.6972198 C4.74239933,23.9020402 4.42010896,23.9177956 4.19721623,23.744486 L4.14368933,23.6972198 L1.30278024,20.8563107 C1.08089144,20.6344219 1.08089144,20.274669 1.30278024,20.0527802 Z"/>
        <polygon fill="#2D346A" points="18.26 .371 24.652 6.763 23.848 7.567 17.456 1.174"/>
        <path fill="#2D346A" d="M20.6437708,3.55838062 C20.8657046,3.3365368 21.2254574,3.33660973 21.4473012,3.55854351 C21.6520801,3.76340546 21.6677702,4.08569902 21.4944154,4.30855661 L21.4471383,4.36207393 L7.43009285,18.3734376 C7.20815908,18.5952814 6.84840626,18.5952085 6.62656244,18.3732747 C6.42178353,18.1684127 6.40609345,17.8461192 6.57944822,17.6232616 L6.62672533,17.5697443 L20.6437708,3.55838062 Z"/>
      </g>
    </g>
  </g>
</svg>
